<svg width="228" height="68" viewBox="0 0 228 68" fill="none" xmlns="http://www.w3.org/2000/svg">
<path d="M218.897 67.1875H8.93555C4.23242 67.1875 0.537109 63.4922 0.537109 58.7891V8.39844C0.537109 3.69531 4.23242 0 8.93555 0H218.897C223.6 0 227.295 3.69531 227.295 8.39844V58.7891C227.295 63.4922 223.6 67.1875 218.897 67.1875Z" fill="black"/>
<path d="M218.897 1.34375C222.76 1.34375 225.951 4.53516 225.951 8.39844V58.7891C225.951 62.6524 222.76 65.8438 218.897 65.8438H8.93555C5.07227 65.8438 1.88086 62.6524 1.88086 58.7891V8.39844C1.88086 4.53516 5.07227 1.34375 8.93555 1.34375H218.897ZM218.897 0H8.93555C4.23242 0 0.537109 3.86328 0.537109 8.39844V58.7891C0.537109 63.4922 4.23242 67.1875 8.93555 67.1875H218.897C223.6 67.1875 227.295 63.4922 227.295 58.7891V8.39844C227.295 3.86328 223.6 0 218.897 0Z" fill="#A6A6A6"/>
<path d="M80.1543 17.1326C80.1543 18.4763 79.8184 19.6521 78.9785 20.4919C77.9707 21.4998 76.7949 22.0037 75.2832 22.0037C73.7715 22.0037 72.5957 21.4998 71.5879 20.4919C70.5801 19.4841 70.0762 18.3084 70.0762 16.7966C70.0762 15.2849 70.5801 14.1091 71.5879 13.1013C72.5957 12.0935 73.7715 11.5896 75.2832 11.5896C75.9551 11.5896 76.627 11.7576 77.2988 12.0935C77.9707 12.4294 78.4746 12.7654 78.8105 13.2693L77.9707 14.1091C77.2988 13.2693 76.459 12.9333 75.2832 12.9333C74.2754 12.9333 73.2676 13.2693 72.5957 14.1091C71.7559 14.781 71.4199 15.7888 71.4199 16.9646C71.4199 18.1404 71.7559 19.1482 72.5957 19.8201C73.4355 20.4919 74.2754 20.9959 75.2832 20.9959C76.459 20.9959 77.2988 20.6599 78.1387 19.8201C78.6426 19.3162 78.9785 18.6443 78.9785 17.8044H75.2832V16.4607H80.1543V17.1326ZM87.8809 12.9333H83.3457V16.1248H87.5449V17.3005H83.3457V20.4919H87.8809V21.8357H82.002V11.7576H87.8809V12.9333ZM93.4238 21.8357H92.0801V12.9333H89.2246V11.7576H96.2793V12.9333H93.4238V21.8357ZM101.15 21.8357V11.7576H102.494V21.8357H101.15ZM108.205 21.8357H106.861V12.9333H104.006V11.7576H110.893V12.9333H108.037V21.8357H108.205ZM124.162 20.4919C123.154 21.4998 121.979 22.0037 120.467 22.0037C118.955 22.0037 117.779 21.4998 116.771 20.4919C115.764 19.4841 115.26 18.3084 115.26 16.7966C115.26 15.2849 115.764 14.1091 116.771 13.1013C117.779 12.0935 118.955 11.5896 120.467 11.5896C121.979 11.5896 123.154 12.0935 124.162 13.1013C125.17 14.1091 125.674 15.2849 125.674 16.7966C125.674 18.3084 125.17 19.4841 124.162 20.4919ZM117.779 19.6521C118.451 20.324 119.459 20.8279 120.467 20.8279C121.475 20.8279 122.482 20.4919 123.154 19.6521C123.826 18.9802 124.33 17.9724 124.33 16.7966C124.33 15.6209 123.994 14.613 123.154 13.9412C122.482 13.2693 121.475 12.7654 120.467 12.7654C119.459 12.7654 118.451 13.1013 117.779 13.9412C117.107 14.613 116.604 15.6209 116.604 16.7966C116.604 17.9724 116.939 18.9802 117.779 19.6521ZM127.521 21.8357V11.7576H129.033L133.904 19.6521V11.7576H135.248V21.8357H133.904L128.697 13.6052V21.8357H127.521Z" fill="white" stroke="white" stroke-width="1.18519" stroke-miterlimit="10"/>
<path d="M114.924 36.6174C110.893 36.6174 107.701 39.6409 107.701 43.8401C107.701 47.8713 110.893 51.0627 114.924 51.0627C118.955 51.0627 122.147 48.0393 122.147 43.8401C122.147 39.4729 118.955 36.6174 114.924 36.6174ZM114.924 48.0393C112.74 48.0393 110.893 46.1917 110.893 43.6721C110.893 41.1526 112.74 39.3049 114.924 39.3049C117.107 39.3049 118.955 40.9846 118.955 43.6721C118.955 46.1917 117.107 48.0393 114.924 48.0393ZM99.3027 36.6174C95.2715 36.6174 92.0801 39.6409 92.0801 43.8401C92.0801 47.8713 95.2715 51.0627 99.3027 51.0627C103.334 51.0627 106.525 48.0393 106.525 43.8401C106.525 39.4729 103.334 36.6174 99.3027 36.6174ZM99.3027 48.0393C97.1192 48.0393 95.2715 46.1917 95.2715 43.6721C95.2715 41.1526 97.1192 39.3049 99.3027 39.3049C101.486 39.3049 103.334 40.9846 103.334 43.6721C103.334 46.1917 101.486 48.0393 99.3027 48.0393ZM80.6582 38.801V41.8245H87.8809C87.7129 43.5042 87.041 44.8479 86.2012 45.6877C85.1934 46.6956 83.5137 47.8713 80.6582 47.8713C76.1231 47.8713 72.7637 44.344 72.7637 39.8088C72.7637 35.2737 76.291 31.7463 80.6582 31.7463C83.0098 31.7463 84.8574 32.7542 86.2012 33.9299L88.3848 31.7463C86.5371 30.0666 84.1856 28.7229 80.8262 28.7229C74.7793 28.7229 69.5723 33.762 69.5723 39.8088C69.5723 45.8557 74.7793 50.8948 80.8262 50.8948C84.1856 50.8948 86.5371 49.887 88.5527 47.7034C90.5684 45.6877 91.2402 42.8323 91.2402 40.6487C91.2402 39.9768 91.2402 39.3049 91.0723 38.801H80.6582ZM156.916 41.1526C156.244 39.4729 154.564 36.6174 150.869 36.6174C147.174 36.6174 144.15 39.4729 144.15 43.8401C144.15 47.8713 147.174 51.0627 151.205 51.0627C154.397 51.0627 156.412 49.0471 157.084 47.8713L154.732 46.1917C153.893 47.3674 152.885 48.2073 151.205 48.2073C149.525 48.2073 148.518 47.5354 147.678 46.0237L157.252 41.9924L156.916 41.1526ZM147.174 43.5042C147.174 40.8167 149.357 39.3049 150.869 39.3049C152.045 39.3049 153.221 39.9768 153.557 40.8167L147.174 43.5042ZM139.279 50.3909H142.471V29.3948H139.279V50.3909ZM134.24 38.1292C133.4 37.2893 132.057 36.4495 130.377 36.4495C126.85 36.4495 123.49 39.6409 123.49 43.6721C123.49 47.7034 126.682 50.7268 130.377 50.7268C132.057 50.7268 133.4 49.887 134.072 49.0471H134.24V50.0549C134.24 52.7424 132.729 54.2542 130.377 54.2542C128.529 54.2542 127.186 52.9104 126.85 51.7346L124.162 52.9104C125.002 54.7581 127.018 57.1096 130.545 57.1096C134.24 57.1096 137.264 54.926 137.264 49.719V36.9534H134.24V38.1292ZM130.545 48.0393C128.361 48.0393 126.514 46.1917 126.514 43.6721C126.514 41.1526 128.361 39.3049 130.545 39.3049C132.729 39.3049 134.408 41.1526 134.408 43.6721C134.408 46.1917 132.729 48.0393 130.545 48.0393ZM171.529 29.3948H163.971V50.3909H167.162V42.4963H171.529C175.057 42.4963 178.416 39.9768 178.416 35.9456C178.416 31.9143 175.057 29.3948 171.529 29.3948ZM171.697 39.4729H167.162V32.2502H171.697C174.049 32.2502 175.393 34.2659 175.393 35.7776C175.225 37.6252 173.881 39.4729 171.697 39.4729ZM191.014 36.4495C188.662 36.4495 186.311 37.4573 185.471 39.6409L188.326 40.8167C188.998 39.6409 190.006 39.3049 191.182 39.3049C192.861 39.3049 194.373 40.3127 194.541 41.9924V42.1604C194.037 41.8245 192.693 41.3206 191.35 41.3206C188.326 41.3206 185.303 43.0002 185.303 46.0237C185.303 48.8792 187.822 50.7268 190.51 50.7268C192.693 50.7268 193.701 49.719 194.541 48.7112H194.709V50.3909H197.732V42.3284C197.397 38.6331 194.541 36.4495 191.014 36.4495ZM190.678 48.0393C189.67 48.0393 188.158 47.5354 188.158 46.1917C188.158 44.512 190.006 44.0081 191.518 44.0081C192.861 44.0081 193.533 44.344 194.373 44.6799C194.037 46.6956 192.357 48.0393 190.678 48.0393ZM208.314 36.9534L204.787 46.0237H204.619L200.924 36.9534H197.565L203.107 49.719L199.916 56.7737H203.107L211.674 36.9534H208.314ZM180.096 50.3909H183.287V29.3948H180.096V50.3909Z" fill="white"/>
<path d="M18.0059 12.5979C17.502 13.1018 17.334 13.9417 17.334 14.9495V52.0706C17.334 53.0784 17.6699 53.9182 18.1738 54.4221L18.3418 54.5901L39.1699 33.762V33.426L18.0059 12.5979Z" fill="url(#paint0_linear_17_219)"/>
<path d="M45.8887 40.8167L39.002 33.9299V33.426L45.8887 26.5393L46.0566 26.7073L54.2871 31.4104C56.6387 32.7542 56.6387 34.9377 54.2871 36.2815L45.8887 40.8167Z" fill="url(#paint1_linear_17_219)"/>
<path d="M46.0566 40.6489L39.002 33.5942L18.0059 54.5903C18.8457 55.4302 20.0215 55.4302 21.5332 54.7583L46.0566 40.6489Z" fill="url(#paint2_linear_17_219)"/>
<path d="M46.0566 26.5392L21.5332 12.5978C20.0215 11.758 18.8457 11.9259 18.0059 12.7658L39.002 33.5939L46.0566 26.5392Z" fill="url(#paint3_linear_17_219)"/>
<path opacity="0.2" d="M45.8887 40.4807L21.5332 54.2542C20.1895 55.094 19.0137 54.926 18.1738 54.2542L18.0059 54.4221L18.1738 54.5901C19.0137 55.262 20.1895 55.4299 21.5332 54.5901L45.8887 40.4807Z" fill="black"/>
<path opacity="0.12" d="M18.0059 54.2544C17.502 53.7505 17.334 52.9107 17.334 51.9028V52.0708C17.334 53.0786 17.6699 53.9185 18.1738 54.4224V54.2544H18.0059ZM54.2871 35.7778L45.8887 40.481L46.0567 40.6489L54.2871 35.9458C55.4629 35.2739 55.9668 34.4341 55.9668 33.5942C55.9668 34.4341 55.2949 35.106 54.2871 35.7778Z" fill="black"/>
<path opacity="0.25" d="M21.5332 12.7657L54.2871 31.4102C55.2949 32.0821 55.9668 32.754 55.9668 33.5938C55.9668 32.754 55.4629 31.9141 54.2871 31.2423L21.5332 12.5977C19.1816 11.254 17.334 12.2618 17.334 14.9493V15.1173C17.334 12.5977 19.1816 11.422 21.5332 12.7657Z" fill="white"/>
<defs>
<linearGradient id="paint0_linear_17_219" x1="37.1543" y1="14.6303" x2="8.9641" y2="42.8188" gradientUnits="userSpaceOnUse">
<stop stop-color="#00A0FF"/>
<stop offset="0.007" stop-color="#00A1FF"/>
<stop offset="0.26" stop-color="#00BEFF"/>
<stop offset="0.512" stop-color="#00D2FF"/>
<stop offset="0.76" stop-color="#00DFFF"/>
<stop offset="1" stop-color="#00E3FF"/>
</linearGradient>
<linearGradient id="paint1_linear_17_219" x1="57.3677" y1="33.5957" x2="16.7243" y2="33.5957" gradientUnits="userSpaceOnUse">
<stop stop-color="#FFE000"/>
<stop offset="0.409" stop-color="#FFBD00"/>
<stop offset="0.775" stop-color="#FFA500"/>
<stop offset="1" stop-color="#FF9C00"/>
</linearGradient>
<linearGradient id="paint2_linear_17_219" x1="42.2387" y1="37.4508" x2="4.01238" y2="75.6771" gradientUnits="userSpaceOnUse">
<stop stop-color="#FF3A44"/>
<stop offset="1" stop-color="#C31162"/>
</linearGradient>
<linearGradient id="paint3_linear_17_219" x1="12.7938" y1="0.295776" x2="29.8645" y2="17.3664" gradientUnits="userSpaceOnUse">
<stop stop-color="#32A071"/>
<stop offset="0.069" stop-color="#2DA771"/>
<stop offset="0.476" stop-color="#15CF74"/>
<stop offset="0.801" stop-color="#06E775"/>
<stop offset="1" stop-color="#00F076"/>
</linearGradient>
</defs>
</svg>
