<svg width="302" height="36" viewBox="0 0 302 36" fill="none" xmlns="http://www.w3.org/2000/svg">
<path fill-rule="evenodd" clip-rule="evenodd" d="M28.0495 10.7109C27.8306 7.95831 26.7519 5.91451 24.813 4.58079C22.8725 3.24831 19.7232 2.58103 15.3651 2.58103C13.3155 2.58103 11.5943 2.76426 10.1995 3.12948C8.80418 3.49511 7.68255 3.97916 6.83249 4.58079C5.98243 5.18408 5.37151 5.88252 5.00142 6.67818C4.63092 7.47468 4.44566 8.30234 4.44566 9.1624C4.44566 10.969 5.06711 12.2919 6.30915 13.1303C7.55119 13.9692 9.17468 14.5177 11.1805 14.7757L21.838 16.1954C23.4072 16.4111 24.8341 16.7223 26.1203 17.1307C27.4057 17.5399 28.5173 18.0988 29.4549 18.8084C30.3921 19.5181 31.1112 20.4002 31.6127 21.4539C32.1133 22.5084 32.3646 23.7665 32.3646 25.2282C32.3646 27.4656 31.7975 29.2398 30.6649 30.5515C29.5307 31.864 28.1362 32.8537 26.4799 33.5197C24.8227 34.1858 23.0801 34.6166 21.2494 34.8102C19.4188 35.0039 17.7843 35.1007 16.3457 35.1007C14.0346 35.1007 11.9097 34.8958 9.97085 34.4874C8.03074 34.0777 6.34157 33.4229 4.90332 32.5196C3.46508 31.6164 2.32114 30.4443 1.47108 29.0029C0.62102 27.5628 0.130941 25.8095 0 23.7441H3.00742C3.09458 24.605 3.26888 25.5411 3.53076 26.5511C3.7918 27.5628 4.39093 28.5093 5.32857 29.3906C6.26536 30.2727 7.64929 31.0147 9.48035 31.6164C11.3114 32.2197 13.8612 32.5196 17.1301 32.5196C21.5324 32.5196 24.6707 31.8964 26.5456 30.6483C28.4192 29.4014 29.3572 27.5944 29.3572 25.2282C29.3572 23.2928 28.7248 21.8731 27.4609 20.9698C26.1961 20.0665 24.584 19.4861 22.6224 19.2281L10.8538 17.6791C9.80707 17.5503 8.72839 17.3143 7.61687 16.9695C6.50535 16.6259 5.49193 16.1418 4.5766 15.5178C3.66128 14.8945 2.90932 14.088 2.32114 13.0983C1.73254 12.1095 1.43866 10.8622 1.43866 9.35561C1.43866 8.40995 1.63402 7.39906 2.02642 6.32294C2.41924 5.24848 3.13836 4.23718 4.1842 3.29027C5.23047 2.34503 6.66871 1.55975 8.49935 0.93527C10.3304 0.312034 12.6617 0 15.4956 0C18.5902 0 21.129 0.312034 23.1129 0.93527C25.096 1.55975 26.6538 2.38741 27.7876 3.41949C28.9206 4.45198 29.7265 5.60331 30.2069 6.87139C30.686 8.14071 30.9693 9.42042 31.0569 10.7109H28.0495ZM69.1749 15.6121C68.8697 13.3759 68.2596 11.4289 67.3443 9.77234C66.429 8.11744 65.2846 6.76211 63.9116 5.70801C62.5386 4.65432 60.9909 3.86905 59.2693 3.35259C57.5469 2.83655 55.7272 2.57853 53.8098 2.57853C49.4509 2.57853 45.9639 3.75063 43.3485 6.09483C40.733 8.43986 39.0986 11.6117 38.4447 15.6121H69.1749ZM39.5877 23.9057C38.8686 22.1635 38.4867 20.2602 38.4438 18.1956H72.5742C72.53 15.5722 72.0934 13.1416 71.2665 10.9046C70.4375 8.66839 69.2393 6.74259 67.6705 5.12923C66.1013 3.5163 64.1823 2.25861 61.9163 1.35492C59.6494 0.451639 57.0555 0 54.1356 0C50.5611 0 47.5751 0.580856 45.1782 1.74215C42.7804 2.90345 40.863 4.3452 39.4248 6.06534C37.9861 7.7863 36.9614 9.65725 36.3517 11.6786C35.7404 13.7008 35.4364 15.5722 35.4364 17.2923C35.4364 20.0454 35.8713 22.5184 36.7437 24.7121C37.6156 26.9059 38.8577 28.7769 40.4702 30.3263C42.0828 31.8744 44.0338 33.0577 46.3226 33.8746C48.6113 34.6914 51.1935 35.1007 54.0704 35.1007C58.5594 35.1007 62.2649 34.1425 65.1856 32.2292C68.1054 30.3155 70.2632 27.272 71.6585 23.0992H68.6511C68.3454 23.8309 67.9202 24.7342 67.3758 25.8095C66.8301 26.8848 66.0356 27.9172 64.9894 28.9061C63.9435 29.8962 62.5701 30.7451 60.8704 31.4556C59.1703 32.1652 57.0129 32.5196 54.3975 32.5196C51.8688 32.5196 49.6243 32.1652 47.6627 31.4556C45.7011 30.7451 44.0439 29.745 42.6937 28.4549C41.3422 27.1644 40.3073 25.6478 39.5877 23.9057ZM107.293 9.77234C108.208 11.4289 108.818 13.3759 109.124 15.6121H78.3936C79.0475 11.6117 80.6819 8.43986 83.2974 6.09483C85.9128 3.75063 89.3994 2.57853 93.7587 2.57853C95.6761 2.57853 97.4958 2.83655 99.2178 3.35259C100.939 3.86905 102.488 4.65432 103.861 5.70801C105.233 6.76211 106.378 8.11744 107.293 9.77234ZM78.3934 18.1956C78.4363 20.2602 78.8182 22.1635 79.5373 23.9057C80.2569 25.6478 81.2918 27.1644 82.6433 28.4549C83.9935 29.745 85.6507 30.7451 87.6123 31.4556C89.5739 32.1652 91.8184 32.5196 94.3471 32.5196C96.9625 32.5196 99.1199 32.1652 100.82 31.4556C102.52 30.7451 103.893 29.8962 104.939 28.9061C105.985 27.9172 106.78 26.8848 107.325 25.8095C107.87 24.7342 108.295 23.8309 108.6 23.0992H111.608C110.212 27.272 108.055 30.3155 105.135 32.2292C102.214 34.1425 98.509 35.1007 94.0204 35.1007C91.1431 35.1007 88.5605 34.6914 86.2721 33.8746C83.9838 33.0577 82.0319 31.8744 80.4198 30.3263C78.8073 28.7769 77.5652 26.9059 76.6933 24.7121C75.8209 22.5184 75.386 20.0454 75.386 17.2923C75.386 15.5722 75.69 13.7008 76.3013 11.6786C76.9109 9.65725 77.9357 7.7863 79.374 6.06534C80.8122 4.3452 82.73 2.90345 85.1274 1.74215C87.5247 0.580856 90.5111 0 94.0852 0C97.0051 0 99.5995 0.451639 101.866 1.35492C104.132 2.25861 106.051 3.5163 107.62 5.12923C109.189 6.74259 110.388 8.66839 111.216 10.9046C112.043 13.1416 112.48 15.5722 112.523 18.1956H78.3934ZM117.297 1.03208H120.303V7.61345H120.434C120.957 6.62459 121.633 5.6781 122.461 4.77482C123.289 3.87154 124.281 3.06466 125.436 2.35542C126.591 1.64534 127.921 1.07571 129.425 0.645257C130.928 0.216055 132.639 0 134.558 0C137.129 0 139.287 0.248048 141.03 0.742067C142.773 1.23692 144.212 1.88217 145.346 2.67784C146.478 3.47433 147.361 4.36639 147.993 5.35526C148.625 6.34538 149.082 7.34546 149.367 8.35552C149.649 9.36682 149.813 10.3457 149.857 11.2914C149.9 12.2383 149.923 13.0335 149.923 13.6788V34.0682H146.915V13.808C146.915 12.1303 146.729 10.6042 146.359 9.2268C145.988 7.8507 145.335 6.6678 144.397 5.6781C143.46 4.68881 142.195 3.92597 140.606 3.3875C139.013 2.84985 136.977 2.58103 134.492 2.58103C132.007 2.58103 129.871 2.92589 128.085 3.61311C126.297 4.30158 124.826 5.21607 123.671 6.35535C122.516 7.49587 121.666 8.79719 121.121 10.2593C120.575 11.7222 120.303 13.2271 120.303 14.7757V34.0682H117.297V1.03208ZM179.769 4.58079C181.708 5.91451 182.787 7.95831 183.005 10.7109H186.013C185.926 9.42042 185.643 8.14071 185.163 6.87139C184.683 5.60331 183.877 4.45198 182.744 3.41949C181.61 2.38741 180.052 1.55975 178.069 0.93527C176.085 0.312034 173.546 0 170.452 0C167.617 0 165.286 0.312034 163.456 0.93527C161.625 1.55975 160.187 2.34503 159.14 3.29027C158.095 4.23718 157.375 5.24848 156.983 6.32294C156.591 7.39906 156.394 8.40995 156.394 9.35561C156.394 10.8622 156.689 12.1095 157.277 13.0983C157.865 14.088 158.617 14.8945 159.533 15.5178C160.448 16.1418 161.461 16.6259 162.573 16.9695C163.685 17.3143 164.763 17.5503 165.81 17.6791L177.579 19.2281C179.541 19.4861 181.152 20.0665 182.417 20.9698C183.681 21.8731 184.313 23.2928 184.313 25.2282C184.313 27.5944 183.375 29.4014 181.501 30.6483C179.627 31.8964 176.489 32.5196 172.086 32.5196C168.818 32.5196 166.267 32.2197 164.437 31.6164C162.606 31.0147 161.222 30.2727 160.284 29.3906C159.347 28.5093 158.748 27.5628 158.487 26.5511C158.225 25.5411 158.051 24.605 157.964 23.7441H154.956C155.087 25.8095 155.578 27.5628 156.427 29.0029C157.277 30.4443 158.421 31.6164 159.86 32.5196C161.298 33.4229 162.987 34.0777 164.927 34.4874C166.866 34.8958 168.99 35.1007 171.302 35.1007C172.74 35.1007 174.375 35.0039 176.206 34.8102C178.036 34.6166 179.779 34.1858 181.436 33.5197C183.092 32.8537 184.487 31.864 185.621 30.5515C186.754 29.2398 187.321 27.4656 187.321 25.2282C187.321 23.7665 187.069 22.5084 186.569 21.4539C186.067 20.4002 185.348 19.5181 184.411 18.8084C183.473 18.0988 182.362 17.5399 181.077 17.1307C179.791 16.7223 178.363 16.4111 176.794 16.1954L166.136 14.7757C164.131 14.5177 162.508 13.9692 161.266 13.1303C160.023 12.2919 159.403 10.969 159.403 9.1624C159.403 8.30234 159.587 7.47468 159.958 6.67818C160.327 5.88252 160.939 5.18408 161.788 4.58079C162.639 3.97916 163.76 3.49511 165.156 3.12948C166.551 2.76426 168.272 2.58103 170.321 2.58103C174.679 2.58103 177.829 3.24831 179.769 4.58079ZM195.297 3.6092V17.2884H214.193C215.152 17.2884 216.111 17.1816 217.071 16.9656C218.029 16.7512 218.868 16.3847 219.588 15.8687C220.307 15.3526 220.896 14.6538 221.353 13.7717C221.811 12.8904 222.04 11.7827 222.04 10.4486C222.04 8.72888 221.745 7.40595 221.157 6.48065C220.569 5.55619 219.838 4.87894 218.966 4.44807C218.094 4.01887 217.179 3.77082 216.221 3.70601C215.261 3.64202 214.433 3.6092 213.736 3.6092H195.297ZM195.297 34.0669V19.8721H214.259C217.92 19.8721 220.601 18.9908 222.3 17.2262C224.001 15.4633 224.851 13.1839 224.851 10.3868C224.851 8.45107 224.534 6.87013 223.903 5.64443C223.27 4.41873 222.465 3.47307 221.484 2.80538C220.503 2.13893 219.401 1.67608 218.182 1.41847C216.961 1.16004 215.763 1.03082 214.585 1.03082H192.421V34.0669H195.297ZM234.396 1.03082H231.388V34.0665H234.396V1.03082ZM241.98 1.03263H244.987V8.84012H245.118C246.251 5.87185 248.028 3.75368 250.447 2.48477C252.866 1.21628 255.71 0.581408 258.979 0.581408C259.458 0.581408 259.872 0.613401 260.222 0.677802C260.57 0.742619 260.984 0.839428 261.464 0.968646V3.9365C261.115 3.80728 260.69 3.71047 260.188 3.64648C259.688 3.58167 258.957 3.54967 257.998 3.54967C255.819 3.54967 253.912 3.89412 252.277 4.58134C250.643 5.27022 249.291 6.19469 248.224 7.3564C247.155 8.5177 246.349 9.86264 245.805 11.3887C245.259 12.9161 244.987 14.5182 244.987 16.196V34.0687H241.98V1.03263ZM296.77 9.77234C297.686 11.4289 298.296 13.3759 298.602 15.6121H267.871C268.525 11.6117 270.159 8.43986 272.775 6.09483C275.39 3.75063 278.877 2.57853 283.237 2.57853C285.154 2.57853 286.973 2.83655 288.696 3.35259C290.416 3.86905 291.965 4.65432 293.338 5.70801C294.711 6.76211 295.855 8.11744 296.77 9.77234ZM267.869 18.1956C267.913 20.2602 268.295 22.1635 269.014 23.9057C269.733 25.6478 270.768 27.1644 272.12 28.4549C273.47 29.745 275.128 30.7451 277.089 31.4556C279.051 32.1652 281.294 32.5196 283.823 32.5196C286.439 32.5196 288.596 32.1652 290.296 31.4556C291.997 30.7451 293.37 29.8962 294.415 28.9061C295.461 27.9172 296.257 26.8848 296.802 25.8095C297.346 24.7342 297.772 23.8309 298.077 23.0992H301.085C299.689 27.272 297.531 30.3155 294.612 32.2292C291.691 34.1425 287.985 35.1007 283.497 35.1007C280.62 35.1007 278.036 34.6914 275.749 33.8746C273.461 33.0577 271.509 31.8744 269.897 30.3263C268.284 28.7769 267.041 26.9059 266.17 24.7121C265.297 22.5184 264.862 20.0454 264.862 17.2923C264.862 15.5722 265.166 13.7008 265.778 11.6786C266.387 9.65725 267.412 7.7863 268.851 6.06534C270.289 4.3452 272.206 2.90345 274.604 1.74215C277.001 0.580856 279.987 0 283.562 0C286.482 0 289.076 0.451639 291.343 1.35492C293.608 2.25861 295.527 3.5163 297.096 5.12923C298.665 6.74259 299.864 8.66839 300.692 10.9046C301.519 13.1416 301.956 15.5722 302 18.1956H267.869Z" fill="white"/>
</svg>
