<svg width="771" height="1549" viewBox="0 0 771 1549" fill="none" xmlns="http://www.w3.org/2000/svg">
<path d="M757.239 104.576V1443.86C757.239 1448.62 756.823 1453.18 756.199 1457.73C755.991 1458.77 755.783 1460.01 755.575 1461.05C754.536 1466.64 752.873 1472.23 750.794 1477.41C750.378 1478.45 749.962 1479.48 749.546 1480.52C746.636 1487.15 742.894 1493.36 738.736 1498.95C738.32 1499.57 737.904 1499.99 737.488 1500.61C734.578 1504.34 731.251 1507.86 727.717 1511.17C726.262 1512.42 724.807 1513.66 723.351 1514.9C722.728 1515.32 722.312 1515.73 721.688 1516.14C720.025 1517.39 718.362 1518.63 716.699 1519.67C716.491 1519.67 716.491 1519.87 716.283 1519.87C715.243 1520.49 714.204 1521.12 713.164 1521.94C711.917 1522.57 710.877 1523.39 709.63 1524.02C708.383 1524.64 707.135 1525.26 705.888 1525.88C705.264 1526.09 704.641 1526.5 704.017 1526.71C703.393 1527.12 702.77 1527.33 702.146 1527.54C700.275 1528.36 698.196 1529.19 696.325 1529.81C695.077 1530.23 693.622 1530.64 692.375 1531.06C691.751 1531.26 691.127 1531.47 690.296 1531.68C688.217 1532.3 686.138 1532.71 684.059 1533.13C683.435 1533.34 682.604 1533.34 681.98 1533.54C681.356 1533.75 680.525 1533.75 679.901 1533.96C678.446 1534.16 676.99 1534.37 675.535 1534.58C674.496 1534.79 673.456 1534.79 672.417 1534.79C671.585 1534.79 670.753 1534.99 669.922 1534.99C668.259 1534.99 666.803 1535.2 665.14 1535.2H104.858C103.195 1535.2 101.74 1535.2 100.077 1534.99C99.245 1534.99 98.4134 1534.99 97.5818 1534.79C95.9186 1534.58 94.2555 1534.58 92.5923 1534.37C93.216 1534.37 93.8397 1534.58 94.4634 1534.58C48.5182 1529.4 12.7599 1490.46 12.7599 1443.44V104.576C12.7599 55.6943 51.4287 15.5117 100.077 13.0262C101.74 13.0262 103.195 12.8191 104.858 12.8191H665.14C666.803 12.8191 668.259 12.8191 669.922 13.0262C670.753 13.0262 671.585 13.0262 672.417 13.2333C673.248 13.2333 674.08 13.4405 674.911 13.4405C721.272 18.2044 757.239 57.1442 757.239 104.576Z" stroke="white" stroke-width="2" stroke-miterlimit="10"/>
<path d="M423.772 63.9792H341.653C339.574 63.9792 337.911 62.3222 337.911 60.251V58.1797C337.911 56.1084 339.574 54.4514 341.653 54.4514H423.772C425.851 54.4514 427.514 56.1084 427.514 58.1797V60.251C427.306 62.3222 425.643 63.9792 423.772 63.9792Z" fill="white"/>
<path d="M668.882 48.6519H668.466H667.635C666.803 48.6519 665.972 48.6519 665.14 48.6519H584.268C579.695 48.859 575.952 52.3801 575.537 56.9369C575.537 57.144 575.537 57.5583 575.537 57.9726V58.1797C574.497 81.7921 554.955 100.641 530.839 100.641H392.795H377.203H239.159C215.251 100.641 195.709 81.7921 194.462 58.1797V57.9726C194.462 57.5583 194.462 57.3512 194.462 56.9369C194.046 52.3801 190.304 48.859 185.73 48.6519H104.858C104.027 48.6519 103.195 48.6519 102.363 48.6519H101.532H101.116C71.5946 50.516 48.726 74.9569 48.726 104.369V1443.44C48.726 1472.44 71.3867 1496.88 100.492 1499.16C100.7 1499.16 101.116 1499.16 101.324 1499.16H101.532H101.74H102.155H102.363C103.403 1499.16 104.234 1499.16 105.274 1499.16H377.619H393.211H665.556C666.595 1499.16 667.427 1499.16 668.466 1499.16H668.674H669.09H669.298H669.506C669.714 1499.16 669.922 1499.16 670.338 1499.16C699.235 1496.88 722.104 1472.44 722.104 1443.44V104.576C721.272 74.9569 698.404 50.7231 668.882 48.6519Z" stroke="white" stroke-width="2" stroke-miterlimit="10"/>
</svg>
